<svg xmlns="http://www.w3.org/2000/svg" id="external-link" data-name="Layer 1" viewBox="0 0 24 24" x="0px" y="0px"><title>External link</title><style>path {stroke: #fff; fill: #fff;};</style><path d="M12.58,12.09a.75.75,0,0,0,.53-.22l7.06-7.06V8.46a.75.75,0,0,0,1.5,0V3a.75.75,0,0,0-.75-.75H15.46a.75.75,0,0,0,0,1.5h3.65L12,10.81a.75.75,0,0,0,.53,1.28Z"></path><path d="M21,12.81a.75.75,0,0,0-.75.75v6.2a.49.49,0,0,1-.49.49H4.24a.49.49,0,0,1-.49-.49V4.24a.49.49,0,0,1,.49-.49h5.87a.75.75,0,0,0,0-1.5H4.24a2,2,0,0,0-2,2V19.76a2,2,0,0,0,2,2H19.76a2,2,0,0,0,2-2v-6.2A.75.75,0,0,0,21,12.81Z"></path></svg>