<svg xmlns="http://www.w3.org/2000/svg" xmlns:xlink="http://www.w3.org/1999/xlink" version="1.1" x="0px" y="0px" viewBox="0 0 100 100" enable-background="new 0 0 100 100" xml:space="preserve"><path fill="#9ca2a7" d="M51.421,14.653c-13.749,0-27.667,3.324-27.667,9.678v51.575c0,6.353,13.918,9.677,27.667,9.677  s27.667-3.324,27.667-9.677V24.331C79.088,17.978,65.169,14.653,51.421,14.653z M76.088,58.433c0,2.723-9.609,6.678-24.667,6.678  s-24.667-3.955-24.667-6.678V45.389c4.83,3.32,14.792,5.035,24.667,5.035s19.837-1.715,24.667-5.035V58.433z M76.088,40.747  c0,2.723-9.609,6.677-24.667,6.677s-24.667-3.954-24.667-6.677V28.973c4.83,3.32,14.792,5.035,24.667,5.035  s19.837-1.715,24.667-5.035V40.747z M51.421,17.653c15.058,0,24.667,3.955,24.667,6.678s-9.609,6.677-24.667,6.677  s-24.667-3.954-24.667-6.677S36.363,17.653,51.421,17.653z M51.421,82.583c-15.058,0-24.667-3.954-24.667-6.677V63.075  c4.83,3.32,14.792,5.035,24.667,5.035s19.837-1.715,24.667-5.035v12.831C76.088,78.629,66.479,82.583,51.421,82.583z"></path></svg>